<?xml version="1.0" standalone="no"?>
<!DOCTYPE svg PUBLIC "-//W3C//DTD SVG 20010904//EN"
 "http://www.w3.org/TR/2001/REC-SVG-20010904/DTD/svg10.dtd">
<svg version="1.0" xmlns="http://www.w3.org/2000/svg"
 width="1080.000000pt" height="1080.000000pt" viewBox="0 0 1080.000000 1080.000000"
 preserveAspectRatio="xMidYMid meet">

<g transform="translate(0.000000,1080.000000) scale(0.100000,-0.100000)"
fill="#000000" stroke="none">
<path d="M2330 6800 c0 -1663 0 -1670 20 -1670 11 0 20 7 20 15 0 9 9 15 25
15 14 0 25 5 25 10 0 6 20 10 45 10 41 0 45 2 45 24 0 13 -6 26 -12 28 -24 8
48 68 81 68 25 0 31 4 31 21 0 12 -8 28 -17 35 -17 13 -17 13 0 14 9 0 17 7
17 15 0 9 9 15 25 15 16 0 25 -6 25 -16 0 -9 6 -14 13 -11 6 2 11 10 9 16 -1
6 5 11 13 11 8 0 15 5 15 10 0 6 9 10 20 10 11 0 20 7 20 15 0 8 11 25 25 39
14 14 25 34 25 46 0 15 6 20 25 20 20 0 25 5 25 25 0 18 -5 25 -20 25 -11 0
-20 4 -20 8 0 5 9 18 20 30 11 12 20 28 20 36 0 17 21 26 66 26 34 0 34 0 34
45 0 41 2 45 25 45 20 0 25 5 25 25 0 18 5 25 20 25 26 0 27 37 3 56 -17 13
-17 13 0 14 9 0 17 7 17 15 0 8 7 15 15 15 9 0 15 9 15 25 0 19 5 25 23 25 13
0 34 15 52 35 32 38 45 43 45 20 0 -10 10 -15 33 -15 26 0 37 6 47 25 7 14 20
25 28 25 9 0 13 3 10 6 -8 7 28 44 43 44 5 0 7 5 4 10 -3 6 1 10 9 10 10 0 17
10 18 28 2 43 5 56 12 74 4 9 5 21 2 27 -4 5 -2 12 4 16 5 3 10 -1 10 -9 0 -9
5 -16 10 -16 6 0 10 7 10 15 0 9 9 15 21 15 22 0 51 23 47 37 -2 4 1 9 6 10 5
1 13 7 17 15 7 10 9 10 9 1 0 -7 9 -13 20 -13 11 0 20 5 20 10 0 6 11 10 25
10 14 0 25 5 25 10 0 6 11 10 25 10 16 0 25 6 25 15 0 9 9 15 25 15 14 0 25 5
25 10 0 6 11 10 25 10 16 0 25 6 25 15 0 8 9 15 20 15 13 0 20 7 20 20 0 16 7
20 35 20 22 0 38 6 41 15 4 8 17 15 31 15 13 0 21 4 18 10 -3 6 1 10 9 10 9 0
16 7 16 15 0 8 7 15 16 15 8 0 12 5 9 10 -4 6 5 10 19 10 21 0 26 5 26 25 0
14 5 25 10 25 6 0 10 7 10 15 0 8 4 14 8 13 4 -2 20 9 36 25 28 28 46 28 46 0
0 -13 -2 -14 -17 -2 -16 13 -17 12 -4 -3 11 -15 11 -21 0 -35 -8 -9 -9 -14 -4
-11 6 4 16 -2 23 -13 10 -15 10 -19 0 -19 -9 0 -9 -3 1 -9 12 -8 12 -35 3
-183 -12 -175 -17 -206 -55 -358 -29 -116 -29 -229 0 -292 l22 -48 73 -1 c40
-1 62 -4 48 -7 -23 -4 -24 -5 -5 -12 18 -7 18 -8 -7 -15 -39 -10 -35 -21 10
-30 36 -7 37 -7 12 -18 -24 -10 -24 -11 -4 -14 28 -5 36 -34 15 -53 -14 -13
-12 -16 17 -20 59 -9 35 -25 -70 -45 -56 -12 -97 -24 -91 -28 20 -13 245 14
262 30 10 10 26 13 50 9 20 -3 42 -6 49 -6 7 0 10 -5 6 -12 -4 -7 -3 -8 4 -4
23 14 11 45 -43 105 -54 61 -58 75 -32 109 6 7 6 12 1 11 -21 -4 -23 2 -6 19
11 11 27 49 37 87 l19 67 -32 132 c-41 174 -50 220 -63 354 -12 130 -6 333 11
377 19 48 18 164 -3 203 -10 18 -13 32 -7 32 18 0 23 30 7 48 -16 18 -7 62 13
62 6 0 3 -11 -6 -25 -15 -23 -15 -25 2 -25 9 0 14 -3 11 -7 -4 -3 -2 -13 5
-20 7 -9 8 -17 2 -21 -9 -6 -10 -14 -6 -49 1 -8 16 -13 36 -13 25 0 35 5 39
20 3 11 12 20 20 20 13 0 12 -8 -5 -57 -14 -39 -22 -94 -26 -168 -6 -137 16
-234 83 -367 62 -123 145 -230 318 -412 144 -151 147 -154 180 -147 18 5 42
13 54 19 12 7 28 12 35 12 7 -1 -4 -10 -24 -21 -21 -11 -38 -23 -38 -28 0 -10
55 -33 120 -51 49 -14 158 -14 174 -1 6 5 25 7 41 5 17 -3 68 -8 115 -12 47
-5 76 -10 65 -11 l-20 -2 20 -9 c12 -5 -37 -6 -116 -3 -149 6 -209 0 -209 -22
0 -8 12 -22 26 -31 16 -11 21 -20 14 -24 -7 -4 5 -21 33 -46 24 -21 52 -51 61
-66 10 -15 22 -25 27 -22 5 3 9 -4 9 -15 0 -12 7 -21 15 -21 9 0 28 -8 43 -17
l27 -17 -20 23 c-18 20 -30 73 -15 68 3 -1 5 1 5 4 0 4 9 17 20 29 11 12 19
30 17 40 -2 11 12 30 33 48 28 22 33 32 23 38 -9 6 -6 10 12 14 14 3 29 15 34
27 8 16 26 25 75 35 82 17 85 34 11 71 -37 18 -45 25 -25 21 32 -7 106 -43
116 -57 3 -4 46 34 95 85 324 336 446 539 470 781 5 50 9 66 15 52 5 -13 8
-15 9 -5 0 12 3 11 11 -2 17 -29 28 -20 24 17 -7 52 12 43 23 -12 7 -32 7 -51
-1 -64 -8 -13 -8 -21 2 -33 26 -31 -9 -403 -54 -574 -30 -114 -32 -194 -5
-264 11 -29 20 -59 20 -67 0 -8 7 -22 16 -32 15 -17 13 -22 -34 -71 -42 -45
-72 -87 -72 -100 0 -2 37 -2 83 -1 54 2 75 0 62 -6 -16 -7 -17 -10 -5 -14 48
-17 87 -21 190 -19 63 1 110 -1 103 -4 -7 -3 -9 -12 -6 -20 5 -13 8 -12 22 3
44 50 45 52 26 73 -20 22 -35 26 -35 10 0 -5 6 -10 14 -10 20 0 31 -20 17 -29
-6 -4 -51 -2 -99 5 -48 8 -112 14 -142 14 -48 1 -52 3 -30 12 14 6 53 10 88
10 l63 0 -22 24 c-16 17 -34 24 -63 25 l-41 2 40 8 c31 6 25 7 -32 5 -40 -2
-70 1 -67 6 3 4 35 8 72 9 64 1 65 1 32 12 l-35 11 54 9 c41 8 59 7 75 -3 18
-12 19 -11 9 2 -7 8 -10 17 -8 20 9 9 -72 19 -92 11 -13 -4 -12 -1 6 15 17 15
37 22 67 22 l43 0 21 57 c27 72 27 149 1 255 -20 78 -51 233 -51 251 0 5 4 5
10 2 7 -4 7 3 0 20 -6 15 -8 31 -4 36 3 5 0 9 -5 9 -7 0 -10 23 -9 60 2 33 6
60 11 60 4 0 7 9 7 20 0 11 -7 20 -15 20 -11 0 -15 11 -14 43 1 23 3 35 6 26
3 -11 11 -15 24 -12 13 4 19 0 19 -11 0 -9 8 -16 17 -16 28 0 83 -23 83 -35 0
-7 11 -18 24 -25 20 -10 26 -23 31 -64 3 -28 4 -58 4 -66 -5 -39 2 -70 15 -70
7 0 16 -9 19 -20 5 -19 12 -20 131 -17 69 1 120 -1 113 -5 -19 -12 10 -10 33
2 13 7 21 7 25 0 3 -5 1 -10 -4 -10 -6 0 -11 -4 -11 -10 0 -5 7 -10 15 -10 9
0 15 -9 15 -25 0 -14 5 -25 10 -25 6 0 10 -7 10 -15 0 -8 7 -15 16 -15 11 0
15 -6 11 -20 -3 -13 0 -20 9 -20 8 0 14 -10 14 -24 0 -13 7 -26 15 -30 8 -3
12 -12 9 -21 -4 -8 1 -17 10 -21 10 -4 16 -18 16 -36 0 -22 10 -40 35 -64 19
-18 35 -42 35 -53 0 -12 7 -21 15 -21 9 0 15 -9 15 -25 0 -14 5 -25 10 -25 6
0 10 -11 10 -25 0 -25 1 -25 85 -25 78 0 85 -2 85 -20 0 -11 4 -20 8 -20 5 0
15 -11 22 -25 7 -14 20 -25 28 -25 9 0 13 -3 9 -6 -9 -10 32 -44 53 -44 15 0
20 7 20 25 0 20 -5 25 -25 25 -20 0 -25 5 -25 25 0 28 20 33 44 10 8 -8 20
-15 26 -15 6 0 8 -4 5 -10 -3 -5 1 -10 9 -10 9 0 16 -7 16 -15 0 -8 7 -15 15
-15 9 0 12 -6 8 -16 -4 -10 0 -20 10 -26 25 -13 21 -28 -8 -28 -14 0 -25 -3
-25 -6 0 -10 28 -34 39 -34 6 0 11 -16 11 -36 0 -19 6 -42 14 -50 20 -19 26
-18 26 5 0 24 13 33 34 25 13 -5 16 -21 16 -75 0 -56 3 -69 16 -69 8 0 12 -4
9 -10 -3 -5 1 -10 9 -10 9 0 16 -7 16 -15 0 -8 7 -15 15 -15 8 0 15 -4 15 -10
0 -5 5 -10 10 -10 6 0 10 16 10 35 0 31 3 35 25 35 23 0 25 -4 25 -44 0 -31
-5 -46 -16 -50 -8 -3 -12 -10 -9 -16 10 -15 25 -12 25 6 0 10 7 14 23 12 18
-2 23 -10 25 -40 3 -36 5 -38 38 -38 19 0 34 -4 34 -10 0 -5 5 -10 10 -10 6 0
10 11 10 25 0 16 6 25 16 25 8 0 13 -4 10 -9 -3 -5 6 -17 19 -27 14 -10 25
-29 25 -41 0 -14 6 -23 15 -23 10 0 15 -11 15 -35 0 -31 3 -35 25 -35 16 0 25
-6 25 -15 0 -11 12 -15 45 -15 l45 0 0 1755 0 1755 -3075 0 -3075 0 0 -1670z
m3151 1474 c52 -26 81 -55 62 -61 -9 -3 -10 -10 -3 -22 5 -10 7 -21 4 -24 -6
-6 77 -13 251 -22 199 -10 549 -69 695 -117 60 -19 200 -84 200 -92 0 -2 -46
10 -102 26 -149 42 -369 85 -563 109 -145 19 -230 22 -575 24 -223 2 -387 0
-365 -5 28 -5 17 -6 -35 -3 -75 5 -363 -24 -522 -52 -46 -8 -87 -15 -92 -15
-5 0 -7 -2 -4 -5 3 -3 50 1 104 9 55 8 110 13 124 11 14 -2 56 -4 94 -4 38 -1
67 -4 64 -7 -19 -18 -278 -84 -468 -119 -108 -20 -294 -74 -382 -111 -33 -14
-65 -23 -71 -21 -7 2 4 20 24 40 20 20 34 39 30 43 -3 4 -1 4 5 1 7 -4 33 6
59 21 84 49 90 52 110 52 14 0 16 3 7 8 -26 17 153 94 295 127 218 51 577 94
791 95 29 0 42 4 42 14 0 8 -6 16 -12 18 -26 9 24 60 85 89 66 31 74 31 148
-7z m342 -201 c-7 -2 -19 -2 -25 0 -7 3 -2 5 12 5 14 0 19 -2 13 -5z m120 -10
c-7 -2 -21 -2 -30 0 -10 3 -4 5 12 5 17 0 24 -2 18 -5z m335 -44 c327 -58 528
-125 610 -202 17 -17 32 -39 32 -49 0 -17 -3 -17 -32 -4 -136 60 -206 87 -373
143 -104 36 -203 72 -220 81 -16 8 -59 23 -95 33 -89 24 -62 23 78 -2z m-1557
-245 c25 -13 30 -20 27 -47 l-3 -32 -118 -16 c-186 -27 -324 -57 -432 -95 -55
-19 -108 -38 -117 -41 -14 -4 -18 0 -18 21 0 22 13 35 77 77 43 28 80 54 83
58 10 16 135 52 239 71 134 23 223 25 262 4z m1753 -45 c113 -27 191 -65 239
-118 37 -41 45 -65 28 -76 -5 -3 -43 8 -83 24 -40 16 -142 46 -225 67 l-153
39 0 37 c0 26 5 38 18 41 38 10 89 6 176 -14z m-1596 -116 c-10 -2 -26 -2 -35
0 -10 3 -2 5 17 5 19 0 27 -2 18 -5z m-105 -10 c-7 -2 -19 -2 -25 0 -7 3 -2 5
12 5 14 0 19 -2 13 -5z m-70 -10 c-13 -2 -33 -2 -45 0 -13 2 -3 4 22 4 25 0
35 -2 23 -4z m447 -2 c0 -5 -33 -14 -72 -21 -109 -17 -105 -19 32 -15 l125 4
-105 -9 c-366 -30 -628 -62 -750 -91 -125 -31 -263 -76 -285 -94 -22 -18 -18
-17 40 9 64 29 329 94 455 111 385 52 911 61 1320 23 129 -12 254 -22 277 -22
23 0 39 -4 37 -8 -2 -4 13 -5 33 -2 30 3 34 2 18 -6 -15 -7 -8 -8 30 -5 37 4
45 3 30 -5 -15 -7 -7 -8 30 -5 39 4 45 2 25 -5 -20 -8 -16 -9 20 -5 34 4 41 3
30 -5 -11 -8 -4 -10 30 -6 28 4 38 3 26 -2 -15 -7 -6 -11 43 -21 68 -13 145
-43 155 -60 10 -15 6 -15 -76 18 -81 33 -288 75 -415 86 -48 4 -80 11 -77 16
3 6 -11 9 -33 9 -21 -1 -76 3 -123 9 -237 31 -957 22 -1235 -15 -245 -32 -274
-37 -270 -44 2 -4 -6 -5 -18 -3 -24 5 -164 -26 -232 -50 l-40 -15 37 -16 c21
-9 42 -16 48 -16 24 0 -3 -20 -28 -21 -24 0 -25 -1 -7 -9 11 -5 16 -9 10 -10
-5 -1 -1 -5 10 -10 18 -8 18 -9 -5 -10 -23 -1 -23 -2 -5 -10 11 -5 14 -9 8 -9
-7 -1 -13 -7 -13 -14 0 -7 -16 -28 -35 -47 -35 -34 -50 -67 -17 -37 23 21 56
22 72 2 14 -17 6 -33 -24 -45 -19 -7 -19 -9 -3 -14 53 -18 53 -18 28 -25 -26
-7 -41 -31 -19 -31 10 0 9 -3 -2 -10 -12 -8 -10 -10 10 -10 14 0 32 -5 40 -10
11 -7 -3 -10 -47 -10 -34 0 -69 -3 -77 -6 -12 -5 -15 -2 -10 10 3 9 2 16 -4
16 -18 0 -23 33 -6 51 14 16 14 21 -5 64 -25 57 -27 92 -4 117 9 10 11 18 6
18 -14 0 -24 26 -17 45 4 9 18 22 33 30 14 8 20 14 12 15 -8 0 -33 -21 -56
-46 l-43 -46 -16 23 c-38 55 -9 112 77 152 62 29 255 80 382 101 238 39 645
68 645 47z m-650 -26 c-69 -12 -161 -32 -205 -44 -125 -34 -122 -33 -104 -22
40 25 331 90 404 89 17 0 -26 -10 -95 -23z m1767 -26 c228 -32 407 -88 471
-147 42 -41 41 -57 -3 -32 -20 11 -41 20 -48 20 -7 0 -60 19 -118 41 -93 37
-262 80 -494 125 -44 9 -82 18 -85 21 -7 6 121 -6 277 -28z m86 14 c-7 -2 -19
-2 -25 0 -7 3 -2 5 12 5 14 0 19 -2 13 -5z m54 -9 c-3 -3 -12 -4 -19 -1 -8 3
-5 6 6 6 11 1 17 -2 13 -5z m40 -10 c-3 -3 -12 -4 -19 -1 -8 3 -5 6 6 6 11 1
17 -2 13 -5z m50 -10 c-3 -3 -12 -4 -19 -1 -8 3 -5 6 6 6 11 1 17 -2 13 -5z
m70 -20 c-3 -3 -12 -4 -19 -1 -8 3 -5 6 6 6 11 1 17 -2 13 -5z m53 -14 c18
-12 2 -12 -25 0 -13 6 -15 9 -5 9 8 0 22 -4 30 -9z m-2450 -4 c0 -2 -7 -7 -16
-10 -8 -3 -12 -2 -9 4 6 10 25 14 25 6z m815 -141 c-38 -7 -87 -17 -108 -23
-20 -6 -35 -7 -33 -3 3 4 31 13 63 20 32 7 63 15 68 16 6 2 26 3 45 3 22 0 9
-5 -35 -13z m1687 -16 c26 -14 22 -36 -9 -53 -20 -11 -23 -15 -10 -16 41 -1
40 -90 -2 -141 -18 -23 -18 -24 1 -48 18 -23 18 -26 3 -37 -11 -9 -13 -14 -5
-19 22 -14 -5 -24 -40 -15 -19 4 -29 8 -22 9 7 1 11 5 8 10 -4 5 0 12 6 14 7
3 0 6 -17 7 -18 2 -23 4 -12 7 9 2 17 13 17 24 0 10 5 19 10 19 23 0 8 17 -26
29 -29 10 -33 15 -23 27 16 20 66 18 78 -3 9 -16 10 -16 11 4 0 12 -11 35 -25
51 -14 17 -25 33 -25 37 0 4 -8 14 -17 21 -16 12 -15 13 15 14 51 0 37 20 -15
22 l-48 1 45 7 c25 4 38 8 30 8 -9 1 -16 11 -16 23 0 18 4 20 35 14 20 -4 44
-11 53 -16z m-145 5 c-3 -3 -12 -4 -19 -1 -8 3 -5 6 6 6 11 1 17 -2 13 -5z
m-2097 -49 c0 -17 4 -23 14 -19 9 3 15 -4 18 -21 5 -24 3 -26 -25 -23 -26 2
-32 8 -38 35 -5 24 -2 33 9 38 13 5 12 8 -4 21 -18 14 -18 15 4 4 14 -7 22
-20 22 -35z m360 36 c0 -5 -31 -30 -70 -56 -38 -25 -74 -53 -78 -61 -7 -13
-19 -13 -78 -4 -38 6 -73 16 -79 22 -7 7 -3 8 14 3 43 -13 103 -16 95 -4 -4 8
0 8 14 0 25 -13 35 -14 28 -2 -3 5 4 11 15 14 14 4 20 11 16 20 -4 11 0 13 15
9 14 -3 19 -1 14 6 -4 7 -1 12 8 12 9 0 16 5 16 10 0 6 9 10 21 10 11 0 17 4
14 10 -3 6 1 7 9 4 9 -3 16 -1 16 5 0 6 2 11 5 11 3 0 5 -4 5 -9z m1730 -85
c0 -3 -4 -8 -10 -11 -5 -3 -10 -1 -10 4 0 6 5 11 10 11 6 0 10 -2 10 -4z
m-2273 -28 c-3 -8 -6 -5 -6 6 -1 11 2 17 5 13 3 -3 4 -12 1 -19z m696 12 c54
0 24 -8 -93 -24 -63 -9 -128 -19 -145 -21 -22 -4 -15 3 30 25 53 27 67 30 119
25 32 -3 73 -5 89 -5z m-613 -25 c0 -8 -4 -15 -10 -15 -5 0 -10 7 -10 15 0 8
5 15 10 15 6 0 10 -7 10 -15z m2170 0 c0 -8 -4 -15 -10 -15 -5 0 -10 7 -10 15
0 8 5 15 10 15 6 0 10 -7 10 -15z m60 -17 c0 -5 -4 -8 -10 -8 -5 0 -10 10 -10
23 0 18 2 19 10 7 5 -8 10 -18 10 -22z m-392 0 c19 -19 14 -29 -8 -16 -20 13
-27 28 -12 28 4 0 13 -5 20 -12z m287 2 c3 -5 1 -10 -4 -10 -6 0 -11 5 -11 10
0 6 2 10 4 10 3 0 8 -4 11 -10z m-2145 -30 c0 -5 -5 -10 -11 -10 -5 0 -7 5 -4
10 3 6 8 10 11 10 2 0 4 -4 4 -10z m360 -8 c-13 -9 -40 -30 -60 -47 -32 -28
-34 -28 -19 -5 17 27 75 70 93 69 6 0 0 -8 -14 -17z m406 -34 c3 -4 -14 -27
-39 -51 -59 -58 -88 -116 -95 -190 -7 -78 -39 -111 -148 -151 -43 -16 -104
-41 -135 -57 l-56 -28 -13 27 c-7 15 -15 68 -18 119 -4 87 -3 96 26 155 17 35
54 87 82 117 48 51 55 55 113 62 74 9 273 7 283 -3z m-468 -55 c-21 -20 -41
-34 -45 -29 -8 8 54 65 72 66 5 0 -7 -17 -27 -37z m1536 -9 c94 -81 136 -212
107 -331 -20 -76 -23 -77 -104 -37 -103 52 -107 56 -107 128 0 62 -16 137 -44
215 -21 55 -10 71 51 71 38 0 52 -6 97 -46z m-1627 14 c-3 -8 -6 -5 -6 6 -1
11 2 17 5 13 3 -3 4 -12 1 -19z m-304 -89 c-1 -8 -7 -49 -12 -92 -15 -108 -36
-143 -60 -98 -34 62 -19 171 27 195 31 17 48 15 45 -5z m2220 -10 c-10 -20
-15 -56 -15 -95 1 -35 -3 -64 -8 -64 -6 0 -10 8 -11 18 0 9 -3 36 -5 60 -3 24
0 49 5 56 6 7 8 16 4 19 -3 4 -1 7 5 7 7 0 12 7 12 15 0 8 6 15 14 15 12 0 12
-5 -1 -31z m194 13 c29 -18 41 -109 24 -172 -9 -34 -18 -16 -31 66 -6 38 -14
79 -17 92 -5 23 3 28 24 14z m-2099 -84 c-16 -55 -19 -91 -16 -148 3 -42 2
-64 -2 -50 -18 56 -5 201 22 253 17 34 16 16 -4 -55z m962 62 c0 -5 -4 -10
-10 -10 -5 0 -10 5 -10 10 0 6 5 10 10 10 6 0 10 -4 10 -10z m861 -52 c11 -21
11 -22 -4 -9 -10 7 -17 17 -17 22 0 15 9 10 21 -13z m326 -50 c-2 -13 -4 -5
-4 17 -1 22 1 32 4 23 2 -10 2 -28 0 -40z m-2422 -168 c3 -6 -4 -10 -17 -11
-22 0 -22 -1 -3 -9 16 -7 14 -9 -15 -10 -30 0 -33 -2 -16 -12 18 -10 19 -23
12 -307 -8 -313 -14 -368 -52 -442 -66 -132 -105 -2 -56 191 39 157 72 560 45
560 -20 0 -16 38 5 43 33 9 91 7 97 -3z m2395 -12 c0 -5 4 -6 10 -3 6 3 7 -1
4 -10 -5 -11 -14 -15 -28 -11 -11 3 -29 6 -39 6 -14 0 -16 4 -8 19 7 13 18 17
36 14 14 -3 25 -10 25 -15z m-2111 -53 c0 -5 -4 -3 -9 5 -5 8 -9 22 -9 30 0
16 17 -16 18 -35z m2104 -122 c6 -152 26 -294 63 -450 27 -115 29 -139 13
-180 l-10 -28 -24 39 c-41 68 -66 257 -79 614 -5 133 -4 142 13 142 16 0 18
-13 24 -137z m-2063 37 c6 -11 8 -20 6 -20 -3 0 -10 9 -16 20 -6 11 -8 20 -6
20 3 0 10 -9 16 -20z m878 -206 c5 -9 13 -15 18 -14 20 4 13 -17 -10 -28 -29
-13 -36 -7 -36 30 0 31 14 37 28 12z m1027 -224 c-9 -80 -18 -161 -22 -180 -5
-31 -6 -33 -14 -13 -4 12 -2 59 5 110 8 48 20 140 27 203 11 87 15 104 17 70
2 -25 -4 -110 -13 -190z m-1010 145 c11 -1 22 -3 24 -4 3 0 -4 -7 -14 -15 -17
-12 -14 -14 31 -19 27 -4 90 -9 139 -12 219 -15 345 -43 345 -76 0 -8 -4 -8
-14 0 -15 13 -91 4 -213 -24 -74 -17 -184 -71 -233 -114 l-35 -31 59 20 c33
11 66 20 75 20 9 -1 -4 -8 -28 -16 -50 -18 -91 -42 -91 -55 0 -4 19 -12 43
-18 41 -10 40 -10 -15 -5 -75 7 -95 0 -95 -32 0 -14 -10 -35 -21 -46 l-20 -21
-37 23 c-32 20 -35 25 -22 35 10 7 13 16 7 25 -7 11 -27 14 -72 13 l-63 -2 43
12 c24 7 44 16 45 21 1 5 -24 18 -56 29 -70 23 -71 33 -2 12 27 -8 51 -13 52
-11 2 2 -19 18 -47 36 -54 35 -163 82 -233 101 -23 6 -49 14 -57 16 -8 3 -28
7 -45 9 -16 2 -44 6 -62 9 -24 4 -34 1 -42 -12 -6 -10 -11 -13 -11 -7 -1 46
122 75 400 94 84 5 146 14 148 20 10 28 36 42 66 35 17 -4 40 -8 51 -10z
m-384 -242 c38 -4 56 -9 45 -13 -10 -3 -50 -2 -90 3 -39 5 -90 6 -113 3 -23
-3 -45 -1 -48 4 -7 12 110 13 206 3z m849 0 c0 -5 -62 -8 -138 -8 -75 -1 -119
2 -97 6 57 9 235 10 235 2z m-944 -101 c-10 -2 -22 0 -28 6 -6 6 0 7 19 4 21
-5 23 -7 9 -10z m854 8 c0 -5 -7 -10 -16 -10 -8 0 -12 5 -9 10 3 6 10 10 16
10 5 0 9 -4 9 -10z m-213 -26 c-3 -3 -12 -4 -19 -1 -8 3 -5 6 6 6 11 1 17 -2
13 -5z m-227 -164 c0 -5 -8 -10 -17 -10 -15 0 -16 2 -3 10 19 12 20 12 20 0z
m1020 6 c0 -3 -4 -8 -10 -11 -5 -3 -10 -1 -10 4 0 6 5 11 10 11 6 0 10 -2 10
-4z m83 -13 c-7 -2 -19 -2 -25 0 -7 3 -2 5 12 5 14 0 19 -2 13 -5z m-2208 -53
c3 -5 -1 -10 -9 -10 -8 0 -18 5 -21 10 -3 6 1 10 9 10 8 0 18 -4 21 -10z
m2220 0 c4 -6 -11 -10 -37 -9 -36 1 -39 2 -18 9 36 11 48 11 55 0z m-2145 -20
c0 -5 -7 -7 -15 -4 -8 4 -15 8 -15 10 0 2 7 4 15 4 8 0 15 -4 15 -10z m2057
-36 c-3 -3 -12 -4 -19 -1 -8 3 -5 6 6 6 11 1 17 -2 13 -5z m61 -37 c3 -14 -5
-17 -38 -17 -25 0 -39 4 -35 10 3 6 -4 11 -17 12 -13 0 -3 4 22 8 57 9 64 7
68 -13z m-2108 -2 c7 -8 8 -15 2 -15 -5 0 -15 7 -22 15 -7 8 -8 15 -2 15 5 0
15 -7 22 -15z m3617 -177 c-2 -13 -4 -5 -4 17 -1 22 1 32 4 23 2 -10 2 -28 0
-40z"/>
<path d="M5415 8260 c4 -7 -2 -9 -19 -4 -16 4 -26 2 -26 -5 0 -7 20 -11 49
-11 27 0 58 -3 68 -6 10 -3 5 3 -12 15 -31 22 -71 29 -60 11z"/>
<path d="M5406 8221 c-4 -6 -19 -12 -34 -12 -18 -1 -9 -5 25 -13 28 -6 55 -14
59 -18 14 -15 46 -9 40 7 -3 10 1 15 12 15 15 1 15 2 1 10 -27 16 -96 23 -103
11z"/>
<path d="M4388 8003 c7 -3 16 -2 19 1 4 3 -2 6 -13 5 -11 0 -14 -3 -6 -6z"/>
<path d="M4338 7993 c7 -3 16 -2 19 1 4 3 -2 6 -13 5 -11 0 -14 -3 -6 -6z"/>
<path d="M4131 6564 c0 -11 3 -14 6 -6 3 7 2 16 -1 19 -3 4 -6 -2 -5 -13z"/>
<path d="M6677 6434 c-4 -4 -7 -14 -7 -23 0 -11 3 -12 11 -4 6 6 10 16 7 23
-2 6 -7 8 -11 4z"/>
<path d="M7075 6240 c-3 -5 -1 -10 4 -10 6 0 11 5 11 10 0 6 -2 10 -4 10 -3 0
-8 -4 -11 -10z"/>
<path d="M3040 5770 c0 -5 7 -10 15 -10 8 0 15 5 15 10 0 6 -7 10 -15 10 -8 0
-15 -4 -15 -10z"/>
<path d="M5690 5760 c0 -13 11 -13 30 0 12 8 11 10 -7 10 -13 0 -23 -4 -23
-10z"/>
<path d="M5656 5692 c-2 -4 5 -14 17 -22 19 -12 21 -11 10 2 -7 8 -10 18 -6
21 3 4 1 7 -5 7 -6 0 -13 -4 -16 -8z"/>
<path d="M4138 5673 c6 -2 18 -2 25 0 6 3 1 5 -13 5 -14 0 -19 -2 -12 -5z"/>
<path d="M5585 5620 c-33 -34 -39 -47 -42 -90 -3 -58 11 -95 33 -86 8 3 12 2
9 -3 -5 -9 53 -71 66 -71 3 0 5 -18 5 -40 0 -37 -2 -40 -28 -40 -18 0 -28 5
-28 15 0 8 -7 15 -15 15 -18 0 -19 12 -3 28 9 9 9 12 -1 12 -10 0 -83 54 -129
98 -16 15 -32 16 -32 2 0 -5 7 -10 15 -10 8 0 15 -5 15 -11 0 -6 -7 -8 -15 -5
-14 5 -15 -5 -13 -66 3 -68 5 -73 28 -79 l25 -6 -25 -4 -25 -4 -5 -205 -6
-205 -2 192 c-1 105 -5 199 -8 208 -6 14 -8 14 -25 -1 -11 -10 -22 -14 -26
-11 -3 4 -1 7 6 7 7 0 9 5 6 11 -4 6 2 13 14 16 19 5 21 12 21 100 l0 95 -29
-24 c-17 -13 -30 -29 -30 -35 -1 -7 -4 -12 -8 -11 -11 3 -70 -30 -79 -43 -5
-8 -2 -10 7 -5 8 4 2 -2 -13 -14 -32 -25 -36 -46 -10 -53 9 -3 -12 -5 -48 -6
-56 0 -63 1 -47 13 23 18 22 36 -4 36 -32 0 -97 -50 -194 -151 -338 -352 -516
-728 -477 -1009 26 -182 146 -391 280 -487 59 -42 58 -41 36 -49 -26 -9 -64
-45 -64 -60 0 -15 -28 -26 -35 -13 -4 5 -10 7 -15 4 -5 -3 -39 -6 -75 -6 -49
-1 -65 -4 -65 -15 0 -18 -22 -18 -66 1 -20 8 -40 12 -45 9 -15 -9 -10 26 8 57
16 27 16 29 -5 52 -23 25 -28 84 -7 99 13 9 -10 93 -35 128 -22 31 -26 55 -10
65 7 4 6 13 -1 26 -8 16 -7 30 5 60 21 51 20 135 0 190 -21 56 -24 82 -10 92
8 6 7 10 -1 14 -16 6 -17 93 -3 258 12 140 32 252 67 385 30 111 27 168 -11
236 -19 35 -21 44 -10 44 22 0 13 32 -11 45 -14 7 -19 18 -17 35 4 25 56 106
81 126 12 10 11 13 -7 23 -11 6 -28 11 -38 11 -13 0 -14 -3 -5 -14 7 -8 8 -17
3 -20 -6 -3 -15 1 -22 9 -17 20 -22 19 -56 -10 -16 -14 -39 -25 -51 -25 -16 0
-23 -6 -23 -18 0 -19 -39 -36 -100 -45 -20 -4 -19 -5 7 -6 18 0 47 -10 64 -20
l32 -19 -29 -5 c-22 -3 -19 -5 16 -7 l45 -3 -45 -7 -45 -7 40 -2 c22 -1 49 -7
60 -12 15 -7 11 -8 -17 -4 -21 3 -38 1 -40 -5 -2 -6 -33 -11 -70 -12 -37 0
-65 -4 -63 -8 2 -3 -7 -28 -20 -55 -34 -65 -32 -114 9 -303 44 -197 57 -296
59 -444 l2 -117 55 -6 c75 -8 91 -12 55 -14 -23 -1 -27 -3 -15 -11 11 -7 5
-10 -24 -10 -35 0 -38 -2 -22 -13 16 -12 16 -18 2 -82 -30 -143 -55 -162 -85
-65 -10 32 -10 30 -7 -25 2 -33 8 -71 13 -85 6 -14 11 -29 11 -35 1 -12 36
-23 80 -24 17 -1 32 -6 32 -11 0 -6 8 -5 20 2 10 7 22 9 26 5 14 -14 -7 -21
-79 -27 -58 -6 -63 -7 -27 -9 35 -2 41 -4 25 -11 -13 -6 -15 -9 -5 -9 8 -1 21
-10 28 -22 14 -22 12 -27 -34 -79 -21 -23 -21 -26 -6 -40 9 -8 18 -13 19 -11
2 2 17 1 33 -3 l30 -5 -25 -27 c-21 -22 -30 -25 -62 -20 -35 5 -36 4 -10 -5
15 -6 27 -17 27 -24 0 -15 22 -25 56 -25 37 0 29 -16 -8 -17 -18 0 -49 -8 -68
-16 l-35 -15 36 -1 c40 -1 63 -20 54 -44 -5 -12 11 -18 82 -30 130 -23 222
-30 203 -17 -11 9 3 10 58 7 41 -2 79 -10 85 -17 10 -10 8 -12 -5 -7 -10 4
-18 3 -18 -2 0 -32 1056 -50 1320 -23 250 26 526 61 564 72 23 7 40 19 43 30
5 18 15 23 91 48 30 10 33 9 27 -6 -4 -9 -7 -21 -8 -27 -1 -5 -11 -15 -22 -22
-35 -21 -2 -13 50 12 53 26 66 25 47 -5 -7 -11 -8 -20 -3 -20 11 0 21 25 21
52 0 12 -18 38 -40 60 -41 39 -67 49 -57 24 7 -19 -29 -56 -54 -56 -11 0 -29
5 -39 10 -19 10 -19 11 1 31 17 17 18 23 8 29 -8 6 1 10 27 13 27 2 20 4 -26
5 -36 1 -71 6 -79 11 -26 16 0 31 55 31 68 0 78 17 35 57 -44 40 -51 93 -14
107 9 4 21 2 28 -4 8 -7 12 -5 12 5 0 9 -14 17 -36 21 -55 10 -73 23 -31 24
54 1 83 20 96 65 15 47 16 142 4 170 -6 14 -8 4 -4 -30 5 -53 -7 -88 -25 -70
-6 6 -20 48 -31 94 -17 68 -19 86 -8 92 7 5 19 7 26 4 6 -2 12 0 12 6 0 6 -15
7 -37 4 -28 -5 -34 -4 -23 4 13 9 12 11 -5 12 -11 0 -1 6 21 12 33 10 40 16
35 29 -3 10 -3 75 1 145 6 116 30 269 72 458 21 96 20 180 -4 233 -10 23 -17
49 -14 57 5 13 -10 15 -96 15 -77 0 -105 4 -116 15 -14 13 -12 15 13 15 22 0
25 -2 13 -10 -11 -7 2 -10 43 -10 31 0 57 4 57 9 0 5 8 12 18 14 12 3 10 5 -8
7 -23 1 -23 2 -5 10 16 7 12 9 -20 11 -29 1 -33 3 -15 6 14 3 31 10 39 16 8 7
26 17 40 24 24 10 22 12 -29 13 -30 1 -49 4 -42 7 10 4 9 8 -5 19 -21 16 -87
19 -78 4 3 -5 -2 -10 -12 -10 -10 0 -29 -3 -43 -5 -22 -5 -22 -4 -5 4 14 7 16
10 5 11 -8 1 -4 5 10 9 l25 8 -33 19 c-19 11 -31 25 -29 34 3 12 -5 14 -40 11
-28 -2 -42 -7 -40 -15 3 -6 9 -10 15 -9 6 2 9 -3 6 -10 -2 -7 11 -31 29 -52
46 -54 51 -78 21 -104 -19 -17 -22 -25 -15 -40 7 -13 4 -30 -15 -66 -26 -52
-33 -141 -14 -189 5 -13 23 -94 41 -178 28 -134 32 -177 36 -347 3 -164 1
-202 -14 -245 -23 -69 -23 -171 1 -214 17 -33 17 -34 -1 -47 -17 -13 -17 -15
-1 -31 15 -16 14 -21 -14 -77 -27 -52 -30 -67 -25 -118 4 -49 2 -63 -14 -82
l-19 -22 3 25 c2 25 1 25 -106 34 -103 9 -108 8 -131 -13 -12 -12 -33 -23 -45
-26 -18 -3 -13 5 23 36 26 23 45 48 44 58 -2 9 3 15 10 13 15 -3 93 116 126
191 46 104 60 168 60 277 1 144 -28 254 -110 418 -120 243 -380 563 -557 687
-39 27 -56 45 -53 57 2 9 -2 19 -10 22 -8 3 -14 13 -14 22 0 9 -9 24 -20 34
-18 15 -18 19 -4 38 10 14 26 22 44 22 38 0 43 20 12 47 -22 18 -24 24 -13 37
25 30 5 16 -34 -24z m-210 -190 c-3 -5 -11 -10 -16 -10 -6 0 -7 5 -4 10 3 6
11 10 16 10 6 0 7 -4 4 -10z m-40 -40 c-3 -5 -12 -10 -18 -10 -7 0 -6 4 3 10
19 12 23 12 15 0z m1172 -36 c-3 -3 -12 -4 -19 -1 -8 3 -5 6 6 6 11 1 17 -2
13 -5z m16 -21 c-7 -2 -21 -2 -30 0 -10 3 -4 5 12 5 17 0 24 -2 18 -5z m-2113
-43 c0 -13 -11 -13 -30 0 -12 8 -11 10 8 10 12 0 22 -4 22 -10z m-213 -66 c7
-19 -44 -159 -63 -175 -23 -19 -37 3 -42 66 -5 61 10 108 41 130 22 16 54 5
64 -21z m2497 -13 c27 -46 27 -175 0 -148 -7 6 -43 153 -44 175 0 23 24 7 44
-27z m-229 -69 c-5 -26 -9 -32 -15 -21 -9 13 -6 45 7 79 10 25 16 -17 8 -58z
m-564 -121 l33 -46 -47 44 c-25 25 -44 48 -41 52 2 4 0 9 -4 11 -5 1 -26 23
-47 48 -36 42 -35 41 18 -9 31 -30 71 -75 88 -100z m-850 102 c-62 -78 -80
-98 -81 -90 0 8 101 127 108 127 2 0 -10 -17 -27 -37z m-31 13 c0 -2 -8 -10
-17 -17 -16 -13 -17 -12 -4 4 13 16 21 21 21 13z m55 -84 c0 -62 -2 -56 84
-181 38 -53 36 -64 -32 -191 -46 -86 -139 -310 -132 -318 2 -2 41 16 87 39 68
36 103 64 189 151 136 138 140 138 248 34 115 -111 183 -161 276 -207 71 -34
190 -67 252 -69 8 0 7 17 -3 63 -30 131 -85 241 -169 340 -18 21 -40 58 -50
83 -18 47 -16 70 17 153 l10 26 21 -42 c12 -23 51 -73 87 -110 36 -38 78 -93
94 -123 16 -30 45 -78 66 -105 65 -87 103 -180 115 -277 l7 -54 -244 -12
c-133 -7 -321 -12 -417 -12 l-173 0 5 -30 c4 -16 2 -32 -3 -35 -15 -9 -12 -27
3 -22 6 2 11 10 9 17 -1 6 5 10 15 8 14 -3 18 -13 18 -42 l0 -38 120 -62 c117
-60 121 -61 201 -61 94 0 93 -1 -36 -66 -169 -85 -288 -110 -426 -89 -85 13
-214 56 -273 91 -20 12 -65 38 -101 57 -67 36 -102 61 -65 47 105 -40 211 -46
268 -15 20 11 42 20 47 20 6 0 45 19 87 42 74 40 76 42 55 56 -12 8 -22 22
-22 31 1 13 3 13 15 -3 15 -20 15 -20 15 0 0 11 14 33 30 49 17 16 30 32 30
35 0 4 -174 10 -387 14 -265 5 -392 11 -401 19 -20 16 -10 118 17 190 13 32
56 108 97 168 41 61 77 121 80 134 3 12 16 28 30 35 13 8 24 19 24 25 0 6 12
22 26 36 14 13 42 55 61 93 19 38 55 90 80 117 25 27 46 49 47 49 1 0 1 -26 1
-58z m634 32 c3 -16 1 -17 -13 -5 -19 16 -21 34 -3 29 6 -3 14 -13 16 -24z
m-729 3 c0 -2 -12 -14 -27 -28 l-28 -24 24 28 c23 25 31 32 31 24z m838 -45
c6 -18 -15 -14 -22 4 -4 10 -1 14 6 12 6 -2 14 -10 16 -16z m-888 -16 c0 -2
-8 -10 -17 -17 -16 -13 -17 -12 -4 4 13 16 21 21 21 13z m-120 -175 c0 -11
-149 -211 -157 -211 -11 0 53 102 99 158 51 63 58 69 58 53z m1277 -77 c51
-72 76 -114 69 -114 -3 0 -17 17 -31 38 -14 20 -43 61 -66 91 -23 29 -35 51
-28 49 8 -3 33 -31 56 -64z m-992 -254 c3 -5 1 -10 -4 -10 -6 0 -11 5 -11 10
0 6 2 10 4 10 3 0 8 -4 11 -10z m-908 -82 c-3 -7 -5 -2 -5 12 0 14 2 19 5 13
2 -7 2 -19 0 -25z m369 -64 c-8 -21 -15 -34 -15 -28 -1 15 20 76 25 71 2 -2
-2 -21 -10 -43z m51 -211 c-9 -8 30 -36 41 -29 4 2 9 -5 9 -16 1 -11 -1 -18
-4 -14 -13 13 -33 -18 -33 -52 0 -34 -1 -34 -19 -18 -33 30 -32 136 1 136 6 0
8 -3 5 -7z m233 -3 c0 -5 -5 -10 -11 -10 -5 0 -7 5 -4 10 3 6 8 10 11 10 2 0
4 -4 4 -10z m210 -20 c0 -5 -5 -10 -11 -10 -5 0 -7 5 -4 10 3 6 8 10 11 10 2
0 4 -4 4 -10z m790 -10 c0 -5 -4 -10 -10 -10 -5 0 -10 5 -10 10 0 6 5 10 10
10 6 0 10 -4 10 -10z m-1066 -59 c3 -5 -19 4 -49 21 -30 16 -55 31 -55 34 0 7
98 -45 104 -55z m1356 39 c-19 -11 -39 -19 -45 -19 -5 0 6 8 25 19 19 11 40
19 45 19 6 0 -6 -8 -25 -19z m-1506 -189 c-2 -3 -19 10 -37 28 l-32 34 37 -29
c20 -15 35 -30 32 -33z m1586 19 c-18 -23 -35 -38 -38 -35 -5 5 56 75 66 75 2
0 -11 -18 -28 -40z m350 -74 c-11 -30 -30 -32 -30 -2 0 18 5 24 19 23 14 -1
17 -6 11 -21z m-2212 -21 c-3 -3 -9 2 -12 12 -6 14 -5 15 5 6 7 -7 10 -15 7
-18z m2122 21 c0 -3 -4 -8 -10 -11 -5 -3 -10 -1 -10 4 0 6 5 11 10 11 6 0 10
-2 10 -4z m26 -64 c-13 -12 -17 8 -10 40 l9 33 3 -33 c2 -19 1 -36 -2 -40z
m-2176 33 c0 -14 -2 -25 -4 -25 -2 0 -6 11 -8 25 -3 14 -1 25 3 25 5 0 9 -11
9 -25z m2117 -37 c-3 -8 -6 -5 -6 6 -1 11 2 17 5 13 3 -3 4 -12 1 -19z m-1702
2 c-3 -5 -12 -10 -18 -10 -7 0 -6 4 3 10 19 12 23 12 15 0z m578 3 c-7 -2 -19
-2 -25 0 -7 3 -2 5 12 5 14 0 19 -2 13 -5z m90 -40 c-34 -2 -93 -2 -130 0 -37
2 -9 3 62 3 72 0 102 -1 68 -3z m-1098 -33 c3 -6 -1 -7 -9 -4 -18 7 -21 14 -7
14 6 0 13 -4 16 -10z m1845 -20 c0 -5 -5 -10 -11 -10 -5 0 -7 5 -4 10 3 6 8
10 11 10 2 0 4 -4 4 -10z m-1295 -150 c50 -7 117 -16 150 -21 33 -5 80 -9 103
-9 28 1 41 -3 37 -9 -9 -15 -100 -13 -226 4 -107 14 -170 33 -184 55 -5 8 -2
9 11 2 11 -6 60 -15 109 -22z m1185 -6 c0 -18 -25 -24 -109 -29 l-76 -4 54 10
c35 7 49 14 41 19 -9 6 -6 9 11 12 41 8 79 3 79 -8z m-193 -30 c-3 -3 -12 -4
-19 -1 -8 3 -5 6 6 6 11 1 17 -2 13 -5z"/>
<path d="M5180 5622 c0 -10 -6 -24 -12 -31 -11 -10 -9 -15 7 -27 43 -33 55
-36 55 -15 0 10 8 22 18 26 14 5 12 11 -18 35 -41 34 -50 37 -50 12z"/>
<path d="M5271 5613 c-9 -4 -1 -16 25 -40 22 -19 35 -33 29 -30 -6 3 -10 -10
-11 -29 -1 -43 11 -44 21 -1 l8 32 4 -27 c4 -24 7 -27 24 -18 14 8 19 7 19 -1
0 -7 3 -9 6 -6 11 11 -26 57 -62 79 -19 11 -31 24 -28 29 3 5 -3 6 -12 2 -12
-4 -15 -3 -10 5 8 13 8 13 -13 5z"/>
<path d="M5691 5594 c0 -11 3 -14 6 -6 3 7 2 16 -1 19 -3 4 -6 -2 -5 -13z"/>
<path d="M4238 5543 c7 -3 16 -2 19 1 4 3 -2 6 -13 5 -11 0 -14 -3 -6 -6z"/>
<path d="M5280 5535 c0 -8 4 -15 10 -15 5 0 7 7 4 15 -4 8 -8 15 -10 15 -2 0
-4 -7 -4 -15z"/>
<path d="M5493 5530 c-3 -11 -10 -17 -17 -13 -6 3 -3 -3 8 -15 23 -27 36 -20
33 18 -2 34 -16 40 -24 10z"/>
<path d="M5644 5518 l-19 -23 23 19 c21 18 27 26 19 26 -2 0 -12 -10 -23 -22z"/>
<path d="M5186 5505 c10 -8 15 -15 11 -15 -4 0 -3 -9 3 -21 9 -15 8 -24 -1
-35 -9 -11 -8 -14 4 -14 21 0 57 48 57 76 0 22 -4 24 -47 24 -43 0 -45 -1 -27
-15z"/>
<path d="M4131 4214 c0 -11 3 -14 6 -6 3 7 2 16 -1 19 -3 4 -6 -2 -5 -13z"/>
<path d="M6686 3847 c3 -10 9 -15 12 -12 3 3 0 11 -7 18 -10 9 -11 8 -5 -6z"/>
<path d="M4112 3815 c0 -16 2 -22 5 -12 2 9 2 23 0 30 -3 6 -5 -1 -5 -18z"/>
<path d="M4128 3723 c7 -3 16 -2 19 1 4 3 -2 6 -13 5 -11 0 -14 -3 -6 -6z"/>
<path d="M4127 3629 c7 -7 15 -10 18 -7 3 3 -2 9 -12 12 -14 6 -15 5 -6 -5z"/>
<path d="M4005 3501 c-14 -20 -42 -47 -62 -61 -43 -30 -50 -49 -43 -132 l5
-61 43 -15 c40 -13 42 -16 41 -50 -1 -22 -3 -29 -6 -17 -6 24 -22 45 -34 45
-5 0 -9 -22 -9 -50 0 -51 15 -69 23 -27 2 12 5 3 6 -20 1 -37 -1 -41 -20 -36
-21 6 -21 4 -15 -40 7 -48 3 -53 -29 -41 -9 4 -12 10 -7 13 15 9 28 211 13
211 -7 0 -11 -23 -11 -64 0 -35 -3 -72 -6 -81 -4 -9 -34 -28 -68 -44 -34 -15
-74 -43 -90 -61 -25 -31 -28 -39 -22 -85 15 -128 150 -212 446 -279 519 -115
1332 -147 2060 -80 281 25 760 112 855 154 11 4 39 17 63 26 35 15 40 20 25
25 -14 6 -11 8 11 8 20 1 27 5 23 16 -4 8 -2 17 3 20 16 10 11 45 -5 45 -8 0
-15 7 -15 15 0 8 5 15 10 15 6 0 6 6 -2 14 -7 7 -17 13 -23 13 -30 -1 -74 29
-78 53 -8 36 -51 77 -119 111 -55 28 -58 31 -58 67 -1 35 -2 36 -15 18 -18
-24 -20 -107 -3 -124 9 -9 7 -13 -6 -18 -26 -10 -31 2 -28 66 2 33 -1 68 -7
79 -8 14 -7 20 4 25 8 3 15 1 15 -4 0 -6 9 -1 20 10 18 18 20 33 20 133 l0
112 -73 67 c-70 63 -74 65 -98 52 -40 -23 -118 -43 -239 -64 -154 -26 -371
-53 -377 -47 -2 3 23 8 56 12 34 4 63 10 65 14 5 7 -75 6 -405 -9 -119 -6
-324 -10 -455 -11 -132 0 -257 -4 -279 -8 -26 -6 56 -10 230 -11 240 -3 259
-4 170 -12 -116 -11 -615 -3 -820 12 -145 11 -399 49 -501 76 -33 8 -80 25
-106 38 l-47 23 -26 -36z m296 -81 c53 -11 168 -28 255 -39 229 -29 230 -29
109 -26 -134 5 -126 2 89 -30 93 -13 172 -27 175 -31 32 -32 -80 -44 -289 -32
-139 8 -240 21 -344 44 -89 19 -111 31 -96 49 9 11 7 15 -14 21 -14 3 -26 13
-26 21 0 12 9 14 43 9 105 -14 147 -18 147 -13 0 3 -30 10 -67 17 -38 6 -81
18 -98 26 -26 12 -26 13 -5 9 14 -3 68 -14 121 -25z m2316 14 c-3 -3 -12 -4
-19 -1 -8 3 -5 6 6 6 11 1 17 -2 13 -5z m-40 -10 c-3 -3 -12 -4 -19 -1 -8 3
-5 6 6 6 11 1 17 -2 13 -5z m117 0 c23 -9 20 -19 -16 -54 -38 -35 -93 -53
-228 -75 -100 -15 -246 -23 -256 -12 -3 3 12 11 34 17 25 6 43 18 47 29 6 21
62 37 265 76 151 28 135 26 154 19z m-171 -11 c-7 -2 -19 -2 -25 0 -7 3 -2 5
12 5 14 0 19 -2 13 -5z m-480 -10 c-7 -2 -19 -2 -25 0 -7 3 -2 5 12 5 14 0 19
-2 13 -5z m424 1 c-3 -3 -12 -4 -19 -1 -8 3 -5 6 6 6 11 1 17 -2 13 -5z m-50
-10 c-3 -3 -12 -4 -19 -1 -8 3 -5 6 6 6 11 1 17 -2 13 -5z m-70 -10 c-3 -3
-12 -4 -19 -1 -8 3 -5 6 6 6 11 1 17 -2 13 -5z m-2184 -60 c37 -6 61 -23 35
-25 -7 0 21 -9 62 -19 88 -22 233 -44 414 -61 176 -17 142 -23 -52 -10 -183
14 -368 42 -467 73 -60 19 -66 23 -40 26 l30 4 -30 14 c-16 8 -21 12 -10 9 11
-2 37 -7 58 -11z m-58 -60 c33 -9 116 -27 185 -40 69 -13 98 -21 65 -18 -83 8
-273 49 -315 68 -39 18 -24 15 65 -10z m415 -73 c33 -6 37 -9 15 -9 -16 0 -50
3 -75 7 -33 6 -37 9 -15 9 17 0 50 -3 75 -7z m128 -18 c-10 -2 -26 -2 -35 0
-10 3 -2 5 17 5 19 0 27 -2 18 -5z m-287 -163 c3 -103 7 -133 19 -140 22 -14
2 -13 -100 5 -47 8 -85 15 -85 15 0 0 0 33 0 72 0 63 -3 73 -18 76 -17 3 -18
-3 -15 -68 3 -70 3 -71 -21 -65 -13 3 -36 9 -52 12 -16 3 -29 9 -29 13 0 5 -9
6 -20 3 -11 -3 -20 -1 -20 5 0 6 -10 12 -22 14 -22 3 -23 7 -20 68 3 64 13 82
42 77 11 -2 16 -20 18 -75 2 -58 6 -72 19 -72 13 0 15 11 11 70 l-5 70 36 -6
c20 -4 42 -12 50 -18 7 -6 26 -9 42 -8 33 4 37 -7 41 -102 2 -40 8 -61 17 -64
11 -4 13 11 9 72 -2 57 0 77 10 81 23 9 31 -4 25 -40 -8 -51 5 -125 23 -125
13 0 15 20 12 130 -3 115 -1 130 13 130 15 0 17 -17 20 -130z m2066 63 l-3
-28 -13 33 c-32 80 -131 5 -131 -100 0 -45 18 -81 50 -98 27 -14 75 6 91 38
l13 27 4 -25 c6 -35 -29 -60 -85 -60 -24 0 -53 5 -64 10 -49 27 -64 125 -28
189 27 48 53 64 114 71 55 6 60 -1 52 -57z m323 52 c0 -8 5 -15 10 -15 14 0
13 -27 -1 -32 -16 -5 -18 -114 -1 -110 18 3 15 -25 -5 -32 -24 -10 -33 11 -33
82 0 40 -4 61 -10 57 -5 -3 -10 -1 -10 4 0 6 5 11 10 11 6 0 10 8 10 18 0 10
3 22 7 25 11 12 23 8 23 -8z m90 -15 c9 -17 6 -24 -15 -44 -33 -31 -32 -72 3
-69 30 4 28 -13 -4 -33 -31 -21 -40 -11 -50 52 -11 76 38 146 66 94z m-2542
-7 c-2 -10 -10 -18 -18 -18 -8 0 -16 8 -18 18 -2 12 3 17 18 17 15 0 20 -5 18
-17z m1834 -124 c2 -112 0 -143 -11 -147 -7 -3 -17 1 -21 8 -5 8 -9 9 -14 1
-4 -6 -23 -11 -41 -11 -46 0 -70 34 -62 91 7 53 31 79 74 79 l33 0 0 60 c0 53
2 60 19 60 19 0 20 -9 23 -141z m-1364 119 c19 0 22 -5 22 -42 -1 -38 -2 -40
-15 -21 -29 40 -36 45 -70 45 -50 0 -75 -37 -75 -109 0 -75 25 -117 76 -127
33 -6 40 -3 60 20 26 30 34 32 34 11 0 -28 -38 -55 -79 -55 -99 0 -172 120
-127 208 15 29 52 66 76 75 8 4 29 3 45 0 17 -3 40 -6 53 -5z m1934 -165 c8
-10 4 -13 -18 -13 l-29 0 3 71 c4 70 3 70 -18 59 -19 -10 -21 -19 -19 -78 2
-60 1 -67 -17 -70 -18 -3 -19 2 -16 69 3 50 1 74 -8 79 -9 6 -7 11 9 19 12 7
25 10 30 7 4 -3 21 -2 37 3 l29 8 3 -71 c2 -38 8 -76 14 -83z m-154 115 c25
-25 14 -56 -23 -68 -35 -11 -41 -23 -29 -54 7 -19 35 -21 52 -4 9 9 12 9 12
-3 0 -38 -55 -53 -82 -21 -48 54 -20 160 43 162 8 0 20 -5 27 -12z m-2107 -45
c0 -16 6 -44 13 -63 l13 -35 11 40 c8 26 8 43 2 49 -18 18 -11 26 21 26 27 0
30 -2 19 -15 -7 -8 -10 -15 -7 -15 4 0 -5 -30 -19 -67 -13 -38 -31 -87 -40
-110 -17 -46 -37 -55 -54 -23 -9 17 -8 20 9 20 45 0 40 69 -14 203 -6 14 -2
17 19 17 22 0 26 -5 27 -27z m506 -29 c27 -17 40 -76 25 -109 -19 -40 -56 -59
-93 -46 -42 15 -58 38 -59 84 0 85 55 116 127 71z m887 -4 c2 0 17 7 35 16 17
9 38 13 47 10 21 -8 34 -49 34 -107 0 -28 5 -49 11 -49 5 0 7 -4 4 -10 -3 -5
-23 -10 -43 -10 -28 0 -33 3 -24 12 15 15 16 124 1 133 -5 4 -21 4 -35 1 -22
-6 -24 -11 -24 -70 0 -43 4 -66 13 -69 6 -2 -7 -6 -30 -8 -24 -3 -43 -1 -43 3
0 5 5 8 10 8 14 0 13 123 -2 138 -9 9 -6 14 13 20 18 7 25 6 27 -4 2 -8 5 -14
6 -14z m-787 9 c8 -8 17 -8 33 1 17 9 28 9 50 0 20 -8 34 -9 48 -1 29 15 39
14 62 -9 16 -16 20 -33 20 -84 0 -42 4 -66 13 -69 6 -3 -8 -6 -33 -6 -27 0
-40 3 -32 8 9 5 12 27 10 72 -3 61 -4 64 -30 67 -35 4 -43 -24 -30 -97 l9 -51
-36 1 c-20 0 -30 3 -23 6 19 7 16 127 -4 144 -11 9 -20 10 -32 2 -21 -13 -29
-117 -11 -139 10 -12 4 -14 -32 -14 -29 0 -39 3 -30 9 22 14 27 106 8 135 -12
18 -13 26 -4 29 20 9 32 8 44 -4z m340 -3 c30 13 38 13 57 1 19 -13 25 -13 50
0 24 13 30 13 52 -2 21 -14 24 -23 24 -80 0 -50 4 -66 18 -74 13 -8 9 -10 -24
-11 l-41 0 9 51 c13 69 5 99 -27 99 -14 0 -29 -8 -35 -19 -14 -27 -13 -104 2
-119 9 -9 3 -12 -27 -12 -25 0 -35 3 -27 9 9 5 12 27 10 72 -3 59 -5 64 -27
67 -13 2 -28 -1 -34 -7 -14 -14 -9 -123 6 -133 7 -4 -3 -8 -23 -8 l-35 0 3 71
c4 66 2 71 -19 76 -22 6 -21 7 11 18 28 10 36 9 38 -1 3 -10 11 -9 39 2z m337
-2 c11 -10 16 -34 16 -74 0 -48 3 -59 18 -63 14 -3 12 -6 -10 -17 -21 -10 -31
-10 -42 -1 -10 8 -16 9 -21 1 -3 -5 -19 -10 -35 -10 -23 0 -31 5 -36 25 -8 31
9 53 54 72 21 9 32 20 32 33 0 31 -28 36 -55 10 -26 -25 -39 -23 -30 2 13 35
83 49 109 22z m1096 -143 c-8 -5 -26 -11 -40 -15 -21 -5 -20 -3 5 9 32 15 60
20 35 6z m-2650 -51 c58 -16 98 -29 90 -29 -17 -1 -202 47 -209 54 -8 9 12 4
119 -25z m2570 21 c-8 -5 -31 -11 -50 -15 l-35 -6 35 14 c41 17 75 21 50 7z
m-2736 -26 c28 -8 58 -12 69 -9 14 4 17 3 12 -6 -6 -10 -1 -11 21 -6 23 5 26
4 14 -4 -12 -9 -10 -11 12 -7 17 2 25 0 21 -6 -3 -6 6 -8 25 -5 17 2 29 1 27
-3 -3 -4 1 -11 8 -17 13 -10 194 -45 322 -62 137 -17 142 -19 50 -14 -178 10
-420 53 -587 104 -97 30 -127 45 -66 33 22 -4 29 -3 24 5 -9 15 -11 15 48 -3z
m2906 5 c-31 -20 -239 -74 -325 -84 -27 -3 -2 5 57 19 60 14 143 36 185 49 89
27 104 30 83 16z m-275 -10 c-11 -5 -29 -8 -40 -8 -16 0 -15 2 5 8 34 11 60
11 35 0z m102 -16 c-3 -3 -12 -4 -19 -1 -8 3 -5 6 6 6 11 1 17 -2 13 -5z
m-2424 -11 c-7 -2 -19 -2 -25 0 -7 3 -2 5 12 5 14 0 19 -2 13 -5z m60 -10 c-7
-2 -21 -2 -30 0 -10 3 -4 5 12 5 17 0 24 -2 18 -5z m90 -10 c-7 -2 -21 -2 -30
0 -10 3 -4 5 12 5 17 0 24 -2 18 -5z m2064 -39 c-3 -3 -12 -4 -19 -1 -8 3 -5
6 6 6 11 1 17 -2 13 -5z m-60 -10 c-3 -3 -12 -4 -19 -1 -8 3 -5 6 6 6 11 1 17
-2 13 -5z"/>
<path d="M4373 3383 c9 -2 23 -2 30 0 6 3 -1 5 -18 5 -16 0 -22 -2 -12 -5z"/>
<path d="M3995 3078 c-10 -24 2 -55 16 -41 6 6 6 18 0 34 -8 21 -10 22 -16 7z"/>
<path d="M4100 2991 c0 -57 3 -71 15 -71 13 0 15 12 13 67 -2 42 -8 68 -15 71
-10 3 -13 -15 -13 -67z"/>
<path d="M3992 2998 c5 -32 28 -35 28 -4 0 17 -5 26 -16 26 -10 0 -14 -7 -12
-22z"/>
<path d="M6807 3104 c-4 -4 -7 -14 -7 -23 0 -11 3 -12 11 -4 6 6 10 16 7 23
-2 6 -7 8 -11 4z"/>
<path d="M6032 2968 c-16 -16 -15 -80 1 -102 7 -10 22 -17 33 -14 16 3 19 13
22 66 3 59 2 62 -21 62 -12 0 -28 -5 -35 -12z"/>
<path d="M6492 3028 c-20 -20 -14 -40 11 -36 14 2 22 10 22 22 0 24 -16 31
-33 14z"/>
<path d="M4877 2969 c-21 -12 -24 -96 -4 -123 32 -44 75 11 63 79 -8 40 -33
58 -59 44z"/>
<path d="M5656 2881 c-21 -23 -11 -53 18 -49 16 2 22 11 24 36 4 37 -15 43
-42 13z"/>
<path d="M4135 3520 c22 -11 47 -19 55 -19 17 0 -33 23 -71 33 -13 3 -6 -3 16
-14z"/>
<path d="M6538 3533 c6 -2 18 -2 25 0 6 3 1 5 -13 5 -14 0 -19 -2 -12 -5z"/>
<path d="M6460 3520 c-20 -6 -21 -8 -5 -8 11 0 31 4 45 8 20 6 21 8 5 8 -11 0
-31 -4 -45 -8z"/>
<path d="M4625 3510 c-3 -5 1 -10 10 -10 9 0 13 5 10 10 -3 6 -8 10 -10 10 -2
0 -7 -4 -10 -10z"/>
<path d="M4578 3503 c7 -3 16 -2 19 1 4 3 -2 6 -13 5 -11 0 -14 -3 -6 -6z"/>
<path d="M6393 3503 c9 -2 23 -2 30 0 6 3 -1 5 -18 5 -16 0 -22 -2 -12 -5z"/>
<path d="M6323 3493 c9 -2 25 -2 35 0 9 3 1 5 -18 5 -19 0 -27 -2 -17 -5z"/>
<path d="M4508 3483 c6 -2 18 -2 25 0 6 3 1 5 -13 5 -14 0 -19 -2 -12 -5z"/>
<path d="M6253 3483 c9 -2 25 -2 35 0 9 3 1 5 -18 5 -19 0 -27 -2 -17 -5z"/>
<path d="M4583 3473 c9 -2 25 -2 35 0 9 3 1 5 -18 5 -19 0 -27 -2 -17 -5z"/>
<path d="M6153 3473 c15 -2 37 -2 50 0 12 2 0 4 -28 4 -27 0 -38 -2 -22 -4z"/>
<path d="M4688 3463 c12 -2 32 -2 45 0 12 2 2 4 -23 4 -25 0 -35 -2 -22 -4z"/>
<path d="M6028 3463 c18 -2 45 -2 60 0 15 2 0 4 -33 4 -33 0 -45 -2 -27 -4z"/>
<path d="M4825 3450 c39 -4 196 -10 350 -13 201 -4 237 -3 125 3 -233 12 -556
19 -475 10z"/>
<path d="M5883 3453 c15 -2 39 -2 55 0 15 2 2 4 -28 4 -30 0 -43 -2 -27 -4z"/>
<path d="M5543 3443 c48 -2 125 -2 170 0 45 1 6 3 -88 3 -93 0 -130 -2 -82 -3z"/>
</g>
</svg>
